<?xml version="1.0" standalone="no"?>
<!DOCTYPE svg PUBLIC "-//W3C//DTD SVG 20010904//EN"
 "http://www.w3.org/TR/2001/REC-SVG-20010904/DTD/svg10.dtd">
<svg version="1.0" xmlns="http://www.w3.org/2000/svg"
 width="318.000000pt" height="159.000000pt" viewBox="0 0 318.000000 159.000000"
 preserveAspectRatio="xMidYMid meet">

<g transform="translate(0.000000,159.000000) scale(0.100000,-0.100000)"
fill="#000000" stroke="none">
<path d="M288 1211 c-21 -22 -38 -48 -38 -60 0 -23 27 -41 61 -41 13 0 37 -14
55 -31 l32 -31 -28 -45 c-16 -25 -34 -67 -41 -95 -8 -30 -21 -54 -33 -60 -20
-11 -20 -11 0 -19 16 -5 22 -19 27 -59 3 -28 19 -75 35 -105 l29 -54 -31 -30
c-23 -22 -37 -29 -54 -24 -30 7 -52 -13 -52 -48 0 -22 6 -32 25 -39 14 -5 25
-17 25 -25 0 -9 10 -20 23 -25 12 -5 19 -9 15 -9 -5 -1 2 -12 14 -26 15 -17
32 -25 55 -25 28 0 33 4 33 23 0 53 18 57 249 57 206 0 213 -1 261 -25 31 -16
66 -25 94 -25 38 0 48 4 62 25 16 25 19 25 145 25 123 0 131 -1 187 -30 76
-38 103 -38 135 0 l26 30 121 0 c112 0 123 -2 161 -26 23 -14 56 -28 73 -31
27 -4 37 0 59 26 l26 31 116 0 c117 0 117 0 175 -36 32 -20 75 -42 97 -49 84
-30 184 -12 258 48 38 30 46 32 140 37 94 5 100 6 103 28 3 21 0 22 -72 22
-76 0 -89 7 -60 31 11 9 17 10 23 1 6 -11 81 -6 81 5 0 11 -55 48 -67 45 -8
-2 -7 9 5 37 9 22 19 39 22 38 3 0 19 3 36 7 l32 7 -25 47 c-14 26 -29 52 -33
57 -5 6 -2 19 6 29 20 28 17 73 -6 96 -28 28 -55 25 -79 -7 l-20 -28 -1 28 c0
35 -37 39 -42 5 -4 -31 -58 -40 -58 -9 0 53 53 137 119 187 31 24 47 31 52 23
5 -9 15 -3 32 17 27 31 24 36 -25 48 -19 4 -28 2 -28 -6 0 -7 -20 -21 -45 -31
-74 -31 -131 -81 -162 -144 l-28 -58 -5 75 c-6 88 -17 112 -64 134 -62 29
-122 14 -165 -40 -20 -25 -21 -39 -21 -256 0 -196 2 -232 16 -254 23 -34 65
-54 116 -54 86 0 118 48 118 175 l0 85 -53 0 -53 0 3 -57 c4 -63 -6 -89 -31
-80 -14 6 -16 30 -16 185 0 183 6 213 38 193 15 -9 20 -66 9 -98 -8 -22 -6
-23 47 -23 l56 0 0 -48 c0 -91 56 -222 108 -252 9 -5 26 -16 36 -24 18 -15 18
-16 -8 -51 l-27 -35 -183 0 c-136 0 -187 3 -200 13 -17 12 -17 14 -2 20 12 5
16 20 16 62 0 59 -4 64 -32 38 -25 -23 -79 -19 -100 8 -14 16 -18 40 -18 105
0 94 7 102 58 59 l29 -25 7 47 c3 25 6 57 6 70 l0 24 -27 -19 c-16 -11 -38
-23 -50 -26 -23 -7 -23 -6 -23 74 0 73 3 83 25 105 29 30 40 31 88 5 l37 -20
0 55 0 55 -135 0 -136 0 16 -30 c12 -24 15 -75 15 -283 0 -229 -2 -257 -18
-277 -17 -21 -18 -21 -40 -3 -20 16 -22 24 -16 81 5 42 11 62 20 62 17 0 16
-3 5 38 -8 25 -7 32 5 32 10 0 13 9 10 32 -2 18 2 42 10 53 24 33 18 99 -12
134 -14 17 -32 31 -39 31 -27 0 -24 18 11 54 31 31 32 36 14 36 -11 0 -20 5
-20 10 0 6 -11 16 -25 22 -22 10 -30 8 -55 -10 -16 -12 -34 -22 -40 -22 -6 0
5 -16 25 -37 l35 -36 -32 -20 c-63 -38 -82 -92 -52 -148 10 -19 16 -49 15 -66
-1 -20 2 -33 9 -33 8 0 9 -10 5 -31 -5 -22 -3 -34 8 -42 10 -8 17 -32 18 -66
3 -52 2 -55 -29 -69 -18 -9 -32 -19 -32 -24 0 -11 12 -10 60 7 39 14 46 14 66
0 16 -10 49 -15 110 -15 76 0 85 -2 74 -15 -10 -12 -39 -15 -145 -15 -121 0
-137 2 -188 26 -59 26 -78 24 -107 -10 -18 -22 -282 -23 -320 -1 -24 13 -21
14 43 15 l67 0 0 62 c0 61 0 61 -20 43 -28 -25 -76 -23 -103 4 -18 18 -23 35
-26 106 -3 80 -2 85 17 85 11 0 34 -11 50 -25 l30 -25 4 69 c3 69 1 73 -32 45
-8 -7 -28 -16 -44 -20 l-28 -7 3 83 c4 76 6 84 33 107 31 27 66 25 99 -4 16
-15 17 -13 17 40 l0 57 -188 0 -187 0 4 -47 c4 -58 -10 -50 -18 10 -5 31 -10
42 -24 42 -9 0 -24 12 -32 28 l-14 27 935 0 935 0 -3 23 -3 22 -1300 2 -1300
2 -37 -38z m82 14 c6 -8 9 -23 5 -36 -5 -16 2 -30 31 -61 37 -37 38 -40 20
-53 -16 -12 -23 -10 -58 18 -24 19 -49 31 -62 29 -46 -6 -60 54 -16 65 11 3
20 13 20 22 0 10 3 21 7 24 11 12 40 8 53 -8z m575 -5 c-4 -6 -108 -10 -281
-10 -176 0 -274 4 -274 10 0 6 100 10 281 10 184 0 278 -3 274 -10z m72 -8 c2
-10 14 -22 26 -27 29 -13 34 -50 10 -64 -12 -6 -25 -6 -34 -1 -10 7 -25 -2
-55 -31 l-40 -40 -19 21 c-18 20 -18 21 19 59 21 22 36 45 33 53 -7 21 12 48
34 48 12 0 23 -8 26 -18z m1903 8 c0 -7 -320 -10 -939 -10 -616 0 -942 3 -946
10 -4 7 312 10 939 10 624 0 946 -3 946 -10z m-1976 -36 c4 -9 -7 -29 -30 -52
l-35 -36 -47 26 c-101 56 -213 59 -320 8 l-60 -28 -36 37 c-58 59 -50 61 255
61 232 0 268 -2 273 -16z m-144 -64 c97 -50 146 -107 175 -204 l14 -44 -27 8
c-15 5 -39 11 -54 14 -15 3 -30 15 -33 27 -11 33 -65 88 -109 112 -30 15 -59
21 -107 22 -56 0 -73 -4 -115 -30 -28 -18 -63 -52 -82 -80 -26 -39 -43 -53
-75 -62 -23 -7 -43 -13 -44 -13 -10 0 0 47 18 84 39 85 110 150 198 183 56 21
185 12 241 -17z m2058 5 c-2 -6 -8 -9 -13 -8 -17 4 -108 -70 -138 -113 -16
-23 -37 -66 -48 -95 -18 -54 -18 -54 -12 -11 4 29 2 42 -6 42 -8 0 -10 -8 -6
-20 7 -24 -10 -27 -19 -4 -17 45 65 140 163 188 67 34 85 38 79 21z m-1744
-22 c2 -16 7 -45 11 -66 10 -59 30 -40 33 31 l3 62 42 0 42 0 -7 -82 c-3 -46
-7 -94 -7 -108 -1 -14 -4 -20 -9 -14 -5 8 -33 10 -84 6 -73 -4 -78 -6 -78 -28
0 -12 -4 -26 -10 -29 -6 -4 -10 9 -10 33 0 21 -3 73 -6 115 -6 65 -5 77 8 77
9 0 21 7 28 15 19 23 38 18 44 -12z m396 -8 c0 -32 -2 -35 -19 -25 -35 18 -80
12 -104 -16 -16 -19 -23 -42 -27 -91 l-5 -65 -23 18 c-20 16 -24 32 -29 99 -3
44 -10 88 -15 98 -8 16 0 17 107 17 l115 0 0 -35z m790 0 c0 -32 -2 -35 -19
-25 -38 20 -78 12 -105 -21 -22 -26 -26 -41 -27 -102 -1 -40 -3 -65 -6 -56 -2
10 -12 19 -22 22 -15 4 -19 20 -25 96 -4 50 -9 98 -12 106 -5 13 11 15 105 15
l111 0 0 -35z m-1012 -248 c2 -171 0 -262 -8 -282 -22 -58 -30 -1 -30 231 0
253 6 332 24 314 7 -7 12 -96 14 -263z m1244 244 c29 -26 33 -35 36 -99 l4
-70 -36 1 c-35 1 -36 2 -36 40 0 51 -15 77 -45 77 -34 0 -45 -27 -45 -109 0
-46 -4 -71 -11 -71 -6 0 -9 9 -6 19 3 12 -1 22 -10 25 -22 9 -23 8 -33 -16 -6
-17 -9 -2 -9 55 -1 125 32 177 116 177 33 0 50 -7 75 -29z m-1514 -109 c1 -67
-1 -122 -5 -122 -5 0 -14 23 -21 52 -6 29 -24 70 -38 91 l-26 39 33 34 c18 19
38 33 44 31 6 -2 11 -52 13 -125z m-237 23 c23 -17 49 -41 58 -54 15 -23 15
-23 -9 -16 -33 10 -285 11 -330 0 l-35 -8 25 33 c14 18 46 43 70 57 38 20 56
24 112 21 55 -3 75 -9 109 -33z m1139 -111 c0 -21 -4 -33 -10 -29 -17 10 -11
65 7 65 2 0 3 -16 3 -36z m110 1 c0 -13 -4 -27 -10 -30 -6 -4 -10 8 -10 30 0
22 4 34 10 30 6 -3 10 -17 10 -30z m577 -22 c-3 -10 -5 -4 -5 12 0 17 2 24 5
18 2 -7 2 -21 0 -30z m-1745 13 c40 -8 91 -21 113 -29 37 -14 38 -15 15 -20
-70 -16 -83 -15 -101 7 -17 20 -25 21 -224 21 -203 0 -207 0 -225 -23 -17 -20
-24 -22 -69 -16 -28 4 -51 10 -51 14 0 8 92 35 170 49 75 14 292 12 372 -3z
m365 -23 c-3 -10 -5 -4 -5 12 0 17 2 24 5 18 2 -7 2 -21 0 -30z m887 22 c-4
-8 -8 -15 -10 -15 -2 0 -4 7 -4 15 0 8 4 15 10 15 5 0 7 -7 4 -15z m688 -32
c-22 -21 -42 -27 -42 -13 0 6 7 10 15 10 8 0 20 9 27 20 7 11 14 16 16 11 2
-5 -5 -18 -16 -28z m62 21 c4 -9 4 -19 1 -22 -2 -3 -7 3 -11 12 -3 9 -10 13
-15 10 -5 -3 -9 0 -9 5 0 17 27 13 34 -5z m-2030 -20 l46 -7 0 -41 c-1 -56
-30 -116 -75 -153 -133 -110 -342 -32 -362 135 -6 55 -11 50 62 65 33 7 278 8
329 1z m592 -9 c-10 -8 -24 -11 -30 -8 -6 4 0 10 14 14 36 10 37 10 16 -6z
m1317 0 c-3 -9 -8 -14 -10 -11 -3 3 -2 9 2 15 9 16 15 13 8 -4z m-68 -5 c-3
-5 -11 -10 -16 -10 -6 0 -7 5 -4 10 3 6 11 10 16 10 6 0 7 -4 4 -10z m-1662
-190 l-8 -94 -33 29 -33 30 26 47 c14 25 31 75 38 110 l12 63 3 -45 c1 -25 -1
-88 -5 -140z m-26 148 c-3 -8 -6 -5 -6 6 -1 11 2 17 5 13 3 -3 4 -12 1 -19z
m1743 -8 c0 -13 7 -20 20 -20 15 0 20 -7 20 -29 0 -17 5 -33 10 -36 15 -9 12
-48 -5 -71 -14 -19 -15 -18 -35 6 -31 38 -58 92 -65 133 -7 36 -7 37 24 37 24
0 31 -4 31 -20z m-1511 -268 c53 -3 61 -5 51 -17 -18 -22 -190 -21 -190 0 0 9
9 15 24 15 22 0 23 3 20 53 l-4 52 18 -50 19 -50 62 -3z m-818 12 c-25 -20
-32 -33 -28 -51 9 -47 -46 -72 -62 -29 -5 13 -19 26 -30 29 -24 6 -28 39 -7
56 8 7 25 9 38 6 18 -5 30 1 53 25 29 30 29 30 49 11 19 -20 19 -20 -13 -47z
m199 56 c0 -5 -4 -10 -10 -10 -5 0 -10 5 -10 10 0 6 5 10 10 10 6 0 10 -4 10
-10z m155 0 c3 -5 0 -10 -7 -10 -7 0 -23 -3 -35 -6 -13 -4 -23 -2 -23 4 0 6
10 13 23 15 12 2 25 5 29 6 4 0 10 -3 13 -9z m212 -16 c27 -21 32 -29 22 -40
-9 -12 -5 -14 29 -14 42 0 56 -8 44 -26 -22 -34 -102 -40 -102 -8 0 7 -14 29
-31 49 -26 29 -29 38 -19 50 16 20 17 19 57 -11z m-327 6 c0 -5 -7 -10 -15
-10 -8 0 -15 5 -15 10 0 6 7 10 15 10 8 0 15 -4 15 -10z m40 0 c0 -5 -7 -10
-15 -10 -8 0 -15 5 -15 10 0 6 7 10 15 10 8 0 15 -4 15 -10z m10 -41 c0 -17 5
-20 32 -17 17 2 33 -2 35 -8 6 -19 -56 -64 -88 -64 -49 0 -99 34 -99 66 0 2
16 4 35 4 28 0 35 4 35 20 0 15 7 20 25 20 19 0 25 -5 25 -21z m30 6 c10 -12
10 -15 -4 -15 -9 0 -16 7 -16 15 0 8 2 15 4 15 2 0 9 -7 16 -15z m220 -47 c0
-14 -24 -9 -59 13 -31 19 -32 21 -15 34 17 12 22 11 47 -13 15 -14 27 -29 27
-34z m-475 41 c10 -16 -25 -49 -52 -49 -29 0 -29 7 -1 37 23 25 43 29 53 12z
m165 1 c0 -5 -8 -10 -17 -10 -15 0 -16 2 -3 10 19 12 20 12 20 0z m1965 -115
c-38 -18 -119 -18 -165 0 -33 13 -27 13 80 13 105 0 113 -1 85 -13z"/>
<path d="M1098 973 c23 -2 59 -2 80 0 20 2 1 4 -43 4 -44 0 -61 -2 -37 -4z"/>
<path d="M512 797 c-45 -48 -14 -117 51 -117 42 0 67 26 67 68 0 65 -74 96
-118 49z"/>
<path d="M715 795 c-47 -46 -17 -115 49 -115 42 0 69 29 68 72 -2 63 -72 89
-117 43z"/>
<path d="M641 677 c-8 -10 -7 -19 4 -33 13 -18 15 -18 31 -2 18 18 13 48 -9
48 -8 0 -20 -6 -26 -13z"/>
<path d="M1596 1129 c21 -23 21 -531 -1 -573 -8 -15 -15 -30 -15 -32 0 -2 34
-4 76 -4 l75 0 -15 22 c-11 15 -16 45 -16 85 0 57 2 63 20 63 38 0 89 28 104
59 12 23 16 63 16 173 0 125 -3 147 -20 175 -23 38 -36 42 -152 45 -78 3 -85
2 -72 -13z m193 -25 c30 -25 30 -27 30 -117 0 -89 -16 -202 -18 -134 -1 16 -5
26 -11 22 -5 -3 -10 -2 -10 4 0 5 4 12 9 15 9 6 22 46 15 46 -3 0 -9 -10 -14
-22 -6 -17 -9 -6 -9 45 -1 38 -5 77 -11 87 -8 16 -58 40 -81 40 -5 0 -10 -55
-11 -122 -1 -68 -3 -101 -5 -75 -4 42 -6 47 -24 42 -18 -6 -19 -1 -19 79 0 46
-3 91 -6 100 -5 14 4 16 64 16 61 0 75 -3 101 -26z m-51 -50 c21 -14 22 -22
22 -139 0 -127 -8 -155 -46 -155 -11 0 -14 27 -14 155 0 85 3 155 8 155 4 0
18 -7 30 -16z"/>
</g>
</svg>
